 <svg
      width="14"
      height="14"
      viewBox="0 0 14 14"
      fill="none"
      xmlns="http://www.w3.org/2000/svg"
      className="w-5 h-5"
    >
      <path
        fill-rule="evenodd"
        clipRule="evenodd"
        d="M2.71429 1H11.2857C11.7404 1 12.1764 1.18061 12.4979 1.5021C12.8194 1.82359 13 2.25963 13 2.71429V11.2857C13 11.7404 12.8194 12.1764 12.4979 12.4979C12.1764 12.8194 11.7404 13 11.2857 13H2.71429C2.25963 13 1.82359 12.8194 1.5021 12.4979C1.18061 12.1764 1 11.7404 1 11.2857V2.71429C1 2.25963 1.18061 1.82359 1.5021 1.5021C1.82359 1.18061 2.25963 1 2.71429 1Z"
        stroke="#4897FF"
        strokeLinecap="round"
        strokeLinejoin="round"
      />
      <path
        d="M13 9.57136L10.4286 6.99993L7.85714 9.5585M11.2857 12.9999L3.57143 5.28564L1 7.85707"
        stroke="#4897FF"
        strokeLinecap="round"
        strokeLinejoin="round"
      />
      <path
        d="M9.99997 4.85735C10.4734 4.85735 10.8571 4.4736 10.8571 4.00021C10.8571 3.52682 10.4734 3.14307 9.99997 3.14307C9.52658 3.14307 9.14282 3.52682 9.14282 4.00021C9.14282 4.4736 9.52658 4.85735 9.99997 4.85735Z"
        fill="#4897FF"
      />
    </svg>