 <svg
      width="18"
      height="14"
      viewBox="0 0 18 14"
      fill="none"
      xmlns="http://www.w3.org/2000/svg"
      className="w-5 h-5"
    >
      <path
        d="M1.04163 6.51595C1.04163 4.00178 1.29163 2.74428 2.07246 1.96345C2.85329 1.18262 4.11079 1.18262 6.62496 1.18262H11.375C13.8891 1.18262 15.1458 1.18262 15.9275 1.96345C16.7091 2.74428 16.9583 4.00178 16.9583 6.51595V7.48428C16.9583 9.99845 16.7083 11.256 15.9275 12.0368C15.1466 12.8176 13.8891 12.8176 11.375 12.8176H6.62496C4.11079 12.8176 2.85329 12.8176 2.07246 12.0368C1.29163 11.256 1.04163 9.99845 1.04163 7.48428V6.51595Z"
        stroke="#E41616"
        strokeLinecap="round"
        strokeLinejoin="round"
      />
      <path
        d="M11.2383 6.57585L7.68163 4.35335C7.60593 4.30603 7.51894 4.27985 7.42971 4.27751C7.34047 4.27518 7.25224 4.29678 7.17417 4.34006C7.0961 4.38335 7.03104 4.44675 6.98575 4.52367C6.94047 4.6006 6.9166 4.68825 6.91663 4.77751V9.22335C6.91674 9.31254 6.94072 9.40008 6.98607 9.47689C7.03142 9.5537 7.09649 9.61697 7.17453 9.66016C7.25258 9.70335 7.34075 9.72487 7.42992 9.7225C7.51908 9.72013 7.60599 9.69395 7.68163 9.64668L11.2383 7.42418C11.3103 7.37925 11.3696 7.31674 11.4108 7.24253C11.452 7.16833 11.4736 7.08487 11.4736 7.00001C11.4736 6.91516 11.452 6.8317 11.4108 6.75749C11.3696 6.68328 11.3103 6.62077 11.2383 6.57585Z"
        stroke="#E41616"
        strokeLinejoin="round"
      />
    </svg>